# xmcd CD database file
#
# Track frame offsets:
#	150
#	8351
#	21494
#	33250
#	45819
#	60211
#	69677
#	83196
#	98123
#	107712
#	119205
#	129161
#	140674
#	152184
#	160583
#
# Disc length: 2304 seconds
#
# Revision: 0
# Processed by: cddbd v1.5.2PL0 Copyright (c) Steve Scherf et al.
# Submitted via: CDex 1.51
#
DISCID=b708fe0f
DTITLE=Willie Nelson - The Album - CD 1
DYEAR=2002
DGENRE=Country
TTITLE0=You wouldn't cross the street to say goodbye
TTITLE1=You'll always has someone
TTITLE2=Is there something on your mind
TTITLE3=Any old army won't do
TTITLE4=Will you remember
TTITLE5=Building heartaches
TTITLE6=The last letter
TTITLE7=Face of a fighter
TTITLE8=Half a man
TTITLE9=Touch me
TTITLE10=I didn't sleep a wink
TTITLE11=Some other time
TTITLE12=December Days
TTITLE13=Slow down old world
TTITLE14=I can't find the time
EXTD=YEAR: 2002
EXTT0=
EXTT1=
EXTT2=
EXTT3=
EXTT4=
EXTT5=
EXTT6=
EXTT7=
EXTT8=
EXTT9=
EXTT10=
EXTT11=
EXTT12=
EXTT13=
EXTT14=
PLAYORDER=
